<?xml version="1.0" encoding="UTF-8"?>
<svg xmlns="http://www.w3.org/2000/svg"
     width="1900"
     height="1300">
      <g transform="translate(300, 1100)">
            <text x="600" y="-700" text-anchor="middle" font-size="30" font-weight="bold">Figures of Speech Used in Edgar Allan Poe Stories</text>
            <line x1="20"
                  x2="20"
                  y1="0"
                  y2="-650"
                  stroke="black"
                  stroke-width="1"/>
            <line x1="20"
                  x2="1200"
                  y1="0"
                  y2="0"
                  stroke="black"
                  stroke-width="1"/>
            <text x="5" y="0" text-anchor="middle">0</text>
            <text x="5" y="-60" text-anchor="middle">25</text>
            <text x="5" y="-120" text-anchor="middle">30</text>
            <text x="5" y="-180" text-anchor="middle">60</text>
            <text x="5" y="-240" text-anchor="middle">70</text>
            <text x="5" y="-300" text-anchor="middle">80</text>
            <text x="5" y="-360" text-anchor="middle">100</text>
            <text x="5" y="-420" text-anchor="middle">140</text>
            <text x="5" y="-480" text-anchor="middle">150</text>
            <text x="5" y="-540" text-anchor="middle">180</text>
            <text x="5" y="-600" text-anchor="middle">200</text>
            
            <!-- Y-axis title -->
            <text x="-40" y="-320" text-anchor="middle" font-size="25" transform="rotate(-90 -40,-320)" font-weight="bold">Amount of Times Used</text>
            <!-- X-axis title -->
            <text x="650" y="80" text-anchor="middle" font-size="25" font-weight="bold">Figure of Speech</text>
            
            <rect x="95" y="-594" width="40" height="594" fill="#c69ede"/>
            <text x="115" y="-604" text-anchor="middle">198</text>
            <text x="115" y="40" text-anchor="middle">imagery</text>
            <rect x="205" y="-393" width="40" height="393" fill="#99c29c"/>
            <text x="225" y="-403" text-anchor="middle">131</text>
            <text x="225" y="40" text-anchor="middle">personification</text>
            <rect x="315" y="-192" width="40" height="192" fill="#69bacf"/>
            <text x="335" y="-202" text-anchor="middle">64</text>
            <text x="335" y="40" text-anchor="middle">simile</text>
            <rect x="425" y="-483" width="40" height="483" fill="#6389c2"/>
            <text x="445" y="-493" text-anchor="middle">161</text>
            <text x="445" y="40" text-anchor="middle">metaphor</text>
            <rect x="535" y="-261" width="40" height="261" fill="#de6f6f"/>
            <text x="555" y="-271" text-anchor="middle">87</text>
            <text x="555" y="40" text-anchor="middle">hyperbole</text>
            <rect x="645" y="-81" width="40" height="81" fill="#e880c4"/>
            <text x="665" y="-91" text-anchor="middle">27</text>
            <text x="665" y="40" text-anchor="middle">alliteration</text>
            <rect x="755" y="-36" width="40" height="36" fill="orange"/>
            <text x="775" y="-46" text-anchor="middle">12</text>
            <text x="775" y="40" text-anchor="middle">irony</text>
            <rect x="865" y="-87" width="40" height="87" fill="violet"/>
            <text x="885" y="-97" text-anchor="middle">29</text>
            <text x="885" y="40" text-anchor="middle">symbolism</text>
            <rect x="975" y="-15" width="40" height="15" fill="#a99ede"/>
            <text x="995" y="-25" text-anchor="middle">5</text>
            <text x="995" y="40" text-anchor="middle">foreshadowing</text>
            <rect x="1085" y="-9" width="40" height="9" fill="#f78d40"/>
            <text x="1105" y="-19" text-anchor="middle">3</text>
            <text x="1105" y="40" text-anchor="middle">onomatopoeia</text>
      </g>
      
</svg>
